<?xml version="1.0" encoding="utf-8"?>
<!-- Generator: Adobe Illustrator 23.1.1, SVG Export Plug-In . SVG Version: 6.00 Build 0)  -->
<svg version="1.1" id="Calque_1" xmlns="http://www.w3.org/2000/svg" xmlns:xlink="http://www.w3.org/1999/xlink" x="0px" y="0px"
	 viewBox="0 0 80 50" style="enable-background:new 0 0 80 50;" xml:space="preserve">
<style type="text/css">
	.st0{fill:#0065D1;}
</style>
<path class="st0" d="M60.2,28.6h-1.8l0,3.6h-4V17.8c0,0,3.3,0,4.9,0c4.2,0,6.7,1.5,6.7,5.4C66.1,26.7,64.1,28.6,60.2,28.6z
	 M59.3,20.5c-0.2,0-0.7,0-0.9,0v5.4h0.9c2.1,0,2.8-0.8,2.8-2.6C62.1,21.5,61.4,20.5,59.3,20.5z M23.4,32.2v-5.8h-4v5.8h-4V17.8h4
	v5.8h4v-5.8h4v14.4H23.4z M30.6,32.2V17.8h3.6h0.4v14.4H30.6z M45.4,32.2h-7.6V17.8h4v11.7h4L45.4,32.2z M47.2,32.2V17.8h4v14.4
	H47.2z M71.5,21.4v0.4c0,2.2,6.7,1.2,6.7,5.8c0,3.5-2.4,4.5-5.8,4.5c-1.4,0-3.5-0.3-4.9-0.4v-3.1c1.2,0.6,3.6,0.9,4.9,0.9
	c1.5,0,1.8-0.5,1.8-1.3c0-2.5-6.7-1.4-6.7-6.3c0-2.8,2.8-4,6.1-4c2.4,0,2.7,0.2,3.8,0.4V21c-1-0.4-2.3-0.4-3.6-0.4
	C72.5,20.5,71.5,20.6,71.5,21.4z M7.6,28.6H5.8l0,3.6h-4V17.8c0,0,3.3,0,4.9,0c4.2,0,6.7,1.5,6.7,5.4C13.5,26.7,11.5,28.6,7.6,28.6z
	 M6.7,20.5c-0.2,0-0.7,0-0.9,0v5.4h0.9c2.1,0,2.8-0.8,2.8-2.6C9.5,21.5,8.8,20.5,6.7,20.5z"/>
</svg>
